<svg xmlns="http://www.w3.org/2000/svg" xmlns:xlink="http://www.w3.org/1999/xlink" viewBox="0 0 443 367" width="443" height="367" preserveAspectRatio="xMidYMid meet" style="width: 100%; height: 100%; transform: translate3d(0px, 0px, 0px); content-visibility: visible;"><defs><clipPath id="__lottie_element_3"><rect width="443" height="367" x="0" y="0"/></clipPath><clipPath id="__lottie_element_6"><path d="M0,0 L700,0 L700,875 L0,875z"/></clipPath><filter id="__lottie_element_8"><feColorMatrix type="matrix" color-interpolation-filters="sRGB" values="0 0 0 0 0.980400025844574 0 0 0 0 0.9569000005722046 0 0 0 0 0.8549000024795532 0 0 0 1 0" result="filter_result_0"/></filter><clipPath id="__lottie_element_10"><path fill="#ffffff" clip-rule="nonzero" d=" M318.0870056152344,264.0870056152344 C309.2130126953125,251.45899963378906 303.4110107421875,235.75900268554688 303.4110107421875,220.4010009765625 C303.4110107421875,220.4010009765625 303.4110107421875,172.61900329589844 303.4110107421875,172.61900329589844 C303.4110107421875,130.64999389648438 271.8760070800781,96.1760025024414 231.0189971923828,91.36699676513672 C235.4459991455078,87.6780014038086 238.56500244140625,84.01200103759766 238.56500244140625,77.05599975585938 C238.56500244140625,67.5 231.05599975585938,59.99100112915039 221.5,59.99100112915039 C211.94400024414062,59.99100112915039 204.43499755859375,67.5 204.43499755859375,77.05599975585938 C204.43499755859375,82.85800170898438 207.5070037841797,87.97699737548828 211.94400024414062,91.04900360107422 C211.94400024414062,91.04900360107422 211.96400451660156,91.12100219726562 211.9709930419922,91.1520004272461 C171.33299255371094,95.88899993896484 139.58900451660156,130.52699279785156 139.58900451660156,172.61900329589844 C139.58900451660156,172.61900329589844 139.58900451660156,220.4010009765625 139.58900451660156,220.4010009765625 C139.58900451660156,235.75900268554688 133.88400268554688,251.5279998779297 124.91300201416016,264.0870056152344 C121.5,268.864990234375 124.91300201416016,275.0090026855469 130.37399291992188,275.0090026855469 C130.37399291992188,275.0090026855469 312.6260070800781,275.0090026855469 312.6260070800781,275.0090026855469 C318.0870056152344,275.0090026855469 321.4630126953125,268.8909912109375 318.0870056152344,264.0870056152344" fill-opacity="1"/></clipPath><filter id="__lottie_element_11"><feColorMatrix type="matrix" color-interpolation-filters="sRGB" values="0 0 0 0 0.980400025844574 0 0 0 0 0.9569000005722046 0 0 0 0 0.8549000024795532 0 0 0 1 0" result="filter_result_0"/></filter><g id="__lottie_element_15"><g transform="matrix(3.8199973106384277,1.5433790683746338,-0.6293390393257141,1.5576688051223755,208.23654174804688,469.92279052734375)" opacity="1" style="display: block;"><rect width="50" height="50" fill="#fa.0083126e979f4.026e978d4fed9.ffdf3b645a2"/></g></g><filter id="__lottie_element_18" filterUnits="objectBoundingBox" x="0%" y="0%" width="100%" height="100%"><feComponentTransfer in="SourceGraphic"><feFuncA type="table" tableValues="1.0 0.0"/></feComponentTransfer></filter><mask id="__lottie_element_15_2" mask-type="alpha"><g filter="url(#__lottie_element_18)"><rect width="700" height="875" x="0" y="0" fill="#ffffff" opacity="0"/><use xmlns:ns1="http://www.w3.org/1999/xlink" ns1:href="#__lottie_element_15"/></g></mask></defs><g clip-path="url(#__lottie_element_3)"><g clip-path="url(#__lottie_element_6)" filter="url(#__lottie_element_8)" transform="matrix(0.9271911978721619,-0.3746095895767212,0.3746095895767212,0.9271911978721619,-254.0533447265625,-157.19883728027344)" opacity="1" style="display: block;"><g mask="url(#__lottie_element_15_2)" style="display: block;"><g transform="matrix(1.0286641120910645,0.4156072735786438,-0.42432811856269836,1.0502489805221558,339.9754638671875,417.13995361328125)" opacity="1"><g opacity="1" transform="matrix(1,0,0,1,-1,155.5)"><path fill="rgb(0,0,0)" fill-opacity="1" d=" M0,-29.823999404907227 C16.45986557006836,-29.823999404907227 29.823999404907227,-16.45986557006836 29.823999404907227,0 C29.823999404907227,16.45986557006836 16.45986557006836,29.823999404907227 0,29.823999404907227 C-16.45986557006836,29.823999404907227 -29.823999404907227,16.45986557006836 -29.823999404907227,0 C-29.823999404907227,-16.45986557006836 -16.45986557006836,-29.823999404907227 0,-29.823999404907227z"/></g></g></g></g><g clip-path="url(#__lottie_element_10)" filter="url(#__lottie_element_11)" transform="matrix(1.0000079870224,0,0,1.0000079870224,-0.0017590555362403393,-0.002505858428776264)" opacity="1" style="display: block;"><rect width="443" height="367" fill="#000000"/></g></g></svg>