<?xml version="1.0" encoding="UTF-8"?>
<svg xmlns="http://www.w3.org/2000/svg" version="1.1" viewBox="0 0 1920 1080">
  <defs>
    <style>
      .cls-1 {
        fill: #faf4da;
        fill-rule: evenodd;
      }
    </style>
  </defs>
  <!-- Generator: Adobe Illustrator 28.7.0, SVG Export Plug-In . SVG Version: 1.2.0 Build 136)  -->
  <g>
    <g id="Layer_1">
      <path class="cls-1" d="M825,202.5c15.1,0,28.3,10,32.4,24.5l36.6,128.1c16,56.1,59.8,99.9,115.9,115.9l128.1,36.6c17.9,5.1,28.3,23.8,23.2,41.7-3.2,11.2-12,19.9-23.2,23.2l-128.1,36.6c-56.1,16-99.9,59.8-115.9,115.9l-36.6,128.1c-5.1,17.9-23.8,28.3-41.7,23.2-11.2-3.2-19.9-12-23.2-23.2l-36.6-128.1c-16-56.1-59.8-99.9-115.9-115.9l-128.1-36.6c-17.9-5.1-28.3-23.8-23.2-41.7,3.2-11.2,12-19.9,23.2-23.2l128.1-36.6c56.1-16,99.9-59.8,115.9-115.9l36.6-128.1c4.1-14.5,17.4-24.5,32.4-24.5ZM1230,67.5c15.5,0,29,10.5,32.8,25.6l11.6,46.6c10.6,42.3,43.7,75.3,85.9,85.9l46.6,11.6c18.1,4.5,29.1,22.8,24.6,40.9-3,12.1-12.5,21.6-24.6,24.6l-46.6,11.6c-42.3,10.6-75.3,43.7-85.9,86l-11.6,46.6c-4.5,18.1-22.8,29.1-40.9,24.6-12.1-3-21.6-12.5-24.6-24.6l-11.6-46.6c-10.6-42.3-43.6-75.4-85.9-85.9l-46.6-11.6c-18.1-4.5-29.1-22.8-24.6-40.9,3-12.1,12.5-21.6,24.6-24.6l46.6-11.6c42.3-10.6,75.4-43.6,85.9-85.9l11.6-46.6c3.8-15,17.3-25.6,32.8-25.6ZM1162.5,675c14.5,0,27.4,9.3,32,23.1l17.7,53.2c6.7,20.1,22.5,36,42.7,42.7l53.2,17.8c17.7,5.9,27.2,25.1,21.3,42.7-3.4,10-11.2,17.9-21.3,21.3l-53.2,17.8c-20.1,6.7-35.9,22.5-42.7,42.7l-17.8,53.2c-5.9,17.7-25.1,27.2-42.7,21.3-10-3.4-17.9-11.2-21.3-21.3l-17.8-53.2c-6.7-20.1-22.5-35.9-42.7-42.7l-53.2-17.8c-17.7-5.9-27.2-25.1-21.3-42.7,3.4-10,11.2-17.9,21.3-21.3l53.2-17.8c20.1-6.7,35.9-22.5,42.7-42.7l17.8-53.2c4.6-13.8,17.5-23.1,32-23.1Z"/>
    </g>
  </g>
</svg>