<?xml version="1.0" encoding="utf-8"?>
<!-- Generator: Adobe Illustrator 27.8.0, SVG Export Plug-In . SVG Version: 6.00 Build 0)  -->
<svg version="1.1" id="Layer_1" xmlns="http://www.w3.org/2000/svg" xmlns:xlink="http://www.w3.org/1999/xlink" x="0px" y="0px"
	 viewBox="0 0 111 111" style="enable-background:new 0 0 111 111;" xml:space="preserve">
<style type="text/css">
	.st0{fill:#FAF4DA;}
</style>
<g>
	<path class="st0" d="M55.5,0C24.8,0,0,24.8,0,55.5S24.8,111,55.5,111s55.6-24.8,55.5-55.5C111,24.8,86.2,0,55.5,0z M90.5,25.8
		c0,3-0.6,5.3-1.9,7s-3.3,3.2-6,4.5s-4.9,2-6.5,2c-1.6,0-2.6-0.1-3-0.3c-0.4-0.2-0.8-0.5-1.1-0.9c-0.3-0.4-0.6-0.6-1.1-0.8
		s-0.6-0.6-0.6-1.3s0.3-1.4,0.8-2.1c0.6-0.7,1-1.4,1.2-2.2c-3.7,0.2-7.6,1-11.6,2.6c-4,1.5-7.5,3.3-10.4,5.2
		c-2.9,1.9-5.3,3.7-7.2,5.5c-1.9,1.7-2.9,3-2.9,3.8s1.3,1.5,3.9,2c11.6,2.3,19.3,4.3,22.9,6c3.6,1.7,6.2,3.6,7.6,5.7
		c1.4,2.1,2.1,4.1,2.1,5.8c0,3.6-1.4,7-4.3,10.2c-2.9,3.2-6.4,5.8-10.6,7.8c-9,4.4-16.9,6.7-23.6,6.7c-6.7,0-11.3-1-13.9-3.1
		c-2.6-2-3.8-4.5-3.8-7.3s0.7-5.4,2.1-7.8c1.4-2.4,3.3-3.6,5.5-3.6c2.4,0.1,3.4,0.7,3.4,1.8v1.4c0,1.4,0.5,2.6,1.6,3.6
		c1.1,1,2,1.5,2.9,1.5c6.7,0,12.7-1,17.9-3c5.2-2,7.8-4,7.8-6.1c0-1-0.9-1.8-2.8-2.5c-1.9-0.7-5.1-1.6-9.5-2.6
		c-4.5-1-7.7-1.9-9.7-2.4s-3.6-1.1-4.8-1.6c-1.2-0.5-2.4-1.2-3.6-2.1c-2.6-1.9-4-4.6-4-8.3c0-3.7,1.4-7.3,4.1-11
		c2.7-3.6,6.1-6.7,10.2-9.3c4.1-2.6,8.5-4.9,13.2-6.8C64.1,19.9,72,18,78.3,18c6.2,0,10.1,1.3,11.5,4c0.4,1,0.7,2,0.7,3.2V25.8z"/>
</g>
</svg>
