<svg xmlns="http://www.w3.org/2000/svg" xmlns:xlink="http://www.w3.org/1999/xlink" viewBox="0 0 500 500" width="500" height="500" preserveAspectRatio="xMidYMid meet" style="width: 100%; height: 100%; transform: translate3d(0px, 0px, 0px); content-visibility: visible;"><defs><clipPath id="__lottie_element_19"><rect width="500" height="500" x="0" y="0"/></clipPath></defs><g clip-path="url(#__lottie_element_19)"><g transform="matrix(1,0,0,1,-150,-150)" opacity="1" style="display: block;"><g opacity="1" transform="matrix(1,0,0,1,400,400)"><path stroke-linecap="round" stroke-linejoin="miter" fill-opacity="0" stroke-miterlimit="10" stroke="rgb(253,251,244)" stroke-opacity="1" stroke-width="20" d=" M0,0 C0,0 -35.62699890136719,63.20899963378906 -90.79100036621094,63.20899963378906 C-125.69999694824219,63.20899963378906 -154,34.909000396728516 -154,0 C-154,-34.909000396728516 -125.69999694824219,-63.20899963378906 -90.79100036621094,-63.20899963378906 C-35.62699890136719,-63.20899963378906 0,0 0,0 C0,0 35.62699890136719,63.20899963378906 90.79100036621094,63.20899963378906 C125.69999694824219,63.20899963378906 154,34.909000396728516 154,0 C154,-34.909000396728516 125.69999694824219,-63.20899963378906 90.79100036621094,-63.20899963378906 C35.62699890136719,-63.20899963378906 0,0 0,0z"/></g></g><g transform="matrix(1,0,0,1,-150,-150)" opacity="1" style="display: block;"><g opacity="1" transform="matrix(1,0,0,1,400,400)"><path stroke-linecap="round" stroke-linejoin="miter" fill-opacity="0" stroke-miterlimit="10" stroke="rgb(255,109,46)" stroke-opacity="1" stroke-width="18" d=" M16.7450008392334,-23.034000396728516 C5.947999954223633,-10.552000045776367 0,0 0,0 C0,0 0,0 0,0 C0,0 -35.62699890136719,63.20899963378906 -90.79100036621094,63.20899963378906 C-100.43199920654297,63.20899963378906 -109.56900024414062,61.05099868774414 -117.74400329589844,57.191001892089844"/></g></g></g></svg>