<?xml version="1.0" encoding="utf-8"?>
<!-- Generator: Adobe Illustrator 27.8.0, SVG Export Plug-In . SVG Version: 6.00 Build 0)  -->
<svg version="1.1" id="Layer_1" xmlns="http://www.w3.org/2000/svg" xmlns:xlink="http://www.w3.org/1999/xlink" x="0px" y="0px"
	 viewBox="0 0 503.1 119" style="enable-background:new 0 0 503.1 119;" xml:space="preserve">
<style type="text/css">
	.st0{fill:#FF6D2F;}
	.st1{fill:#FAF4DA;}
</style>
<g>
	<g>
		<path class="st0" d="M60.5,115.2L60.5,115.2C29.8,115.2,5,90.4,5,59.7l0,0C5,29,29.8,4.2,60.5,4.2l0,0C91.2,4.2,116,29,116,59.7
			l0,0C116.1,90.4,91.2,115.2,60.5,115.2z"/>
		<g>
			<path class="st1" d="M36.5,77.2v1.4c0,1.4,0.5,2.6,1.6,3.6s2,1.5,2.9,1.5c6.7,0,12.7-1,17.9-3s7.8-4,7.8-6.1c0-1-0.9-1.8-2.8-2.5
				c-1.9-0.7-5.1-1.6-9.5-2.6c-4.5-1-7.7-1.9-9.7-2.4s-3.6-1.1-4.8-1.6s-2.4-1.2-3.6-2.1c-2.6-1.9-4-4.6-4-8.3s1.4-7.3,4.1-11
				c2.7-3.6,6.1-6.7,10.2-9.3s8.5-4.9,13.2-6.8c9.3-3.9,17.2-5.8,23.5-5.8c6.2,0,10.1,1.3,11.5,4c0.4,1,0.7,2,0.7,3.2V30
				c0,3-0.6,5.3-1.9,7s-3.3,3.2-6,4.5s-4.9,2-6.5,2s-2.6-0.1-3-0.3s-0.8-0.5-1.1-0.9c-0.3-0.4-0.6-0.6-1.1-0.8s-0.6-0.6-0.6-1.3
				s0.3-1.4,0.8-2.1c0.6-0.7,1-1.4,1.2-2.2c-3.7,0.2-7.6,1-11.6,2.6c-4,1.5-7.5,3.3-10.4,5.2s-5.3,3.7-7.2,5.5
				c-1.9,1.7-2.9,3-2.9,3.8s1.3,1.5,3.9,2c11.6,2.3,19.3,4.3,22.9,6s6.2,3.6,7.6,5.7s2.1,4.1,2.1,5.8c0,3.6-1.4,7-4.3,10.2
				s-6.4,5.8-10.6,7.8c-9,4.4-16.9,6.7-23.6,6.7s-11.3-1-13.9-3.1c-2.6-2-3.8-4.5-3.8-7.3s0.7-5.4,2.1-7.8s3.3-3.6,5.5-3.6
				C35.5,75.5,36.5,76.1,36.5,77.2z"/>
		</g>
	</g>
	<g>
		<path class="st1" d="M170.5,73.9c0-4.6-3.4-7.5-9.3-8.9l-10-2.5c-9.6-2.3-16.3-7.5-16.3-17.5c0-11,9.5-18,21.9-18
			c13.4,0,20.7,7.7,22.9,14.6l-8.3,4.4c-1-4.5-5.6-10.3-14.6-10.3c-7.5,0-12.3,3.6-12.3,9.2c0,4.6,3.5,7.3,8.8,8.6l10.5,2.5
			c11.2,2.7,16.5,9.2,16.5,17.9c0,10.1-8.2,18.7-24.1,18.7c-14.1,0-22.1-8.2-24.7-15.2l8.1-4.6c1.8,6.1,8.2,10.9,16.8,10.9
			C166.6,83.5,170.5,78.9,170.5,73.9z"/>
		<path class="st1" d="M188,44.6h9.1v5.9c2.2-4.1,7.1-6.7,12.8-6.7c6.3,0,11.4,2.9,14.5,7.3c2.4-3.1,7-7.3,15-7.3
			c10.8,0,18.5,7.8,18.5,17.7v30.1h-9.1V63.7c0-7-4.5-11.3-10.6-11.3c-6.3,0-10.8,4.6-10.8,11.3v27.9h-9.1V63.7
			c0-7-4.4-11.3-10.6-11.3c-6.3,0-10.7,4.6-10.7,11.3v27.9h-9V44.6z"/>
		<path class="st1" d="M263.8,68.1c0-14,10.4-24.3,24.7-24.3s24.7,10.3,24.7,24.3c0,13.9-10.3,24.2-24.7,24.2S263.8,82.2,263.8,68.1
			z M288.5,84c8.7,0,15.5-6.6,15.5-15.9s-6.7-15.9-15.5-15.9c-8.7,0-15.5,6.6-15.5,15.9S279.8,84,288.5,84z"/>
		<path class="st1" d="M315.9,68.1c0-14,10.4-24.3,24.7-24.3s24.7,10.3,24.7,24.3c0,13.9-10.3,24.2-24.7,24.2S315.9,82.2,315.9,68.1
			z M340.6,84c8.7,0,15.5-6.6,15.5-15.9s-6.7-15.9-15.5-15.9c-8.7,0-15.5,6.6-15.5,15.9S331.9,84,340.6,84z"/>
		<path class="st1" d="M375.2,52.6h-8.4v-8h8.7V32.5h8.8v12.1h12.1v8h-12.1V83h12.3v8.6h-21.4V52.6z"/>
		<path class="st1" d="M408.4,23.6c3.8,0,6.7,2.8,6.7,6.7c0,3.7-2.8,6.7-6.7,6.7s-6.7-2.9-6.7-6.7C401.7,26.4,404.5,23.6,408.4,23.6
			z M403.8,44.6h9.1v46.9h-9.1V44.6z"/>
		<path class="st1" d="M426.4,52.7h-8v-8.1h8.2V24.1h18.6v8.2h-9.6v12.3h11.8v8.1h-11.8v38.8h-9.2V52.7z"/>
		<path class="st1" d="M469.3,91.2l-19.9-46.6h10.2l14.8,36l14.1-36H499l-28.6,67.8h-10.2L469.3,91.2z"/>
	</g>
</g>
</svg>
